bw_sq_120_02
version=1
nRows=25
nColumns=46
inDegrees=yes
endheader
time	ground_force3_vx	ground_force3_vy	ground_force3_vz	ground_force3_px	ground_force3_py	ground_force3_pz	ground_torque3_x	ground_torque3_y	ground_torque3_z	ground_force5_vx	ground_force5_vy	ground_force5_vz	ground_force5_px	ground_force5_py	ground_force5_pz	ground_torque5_x	ground_torque5_y	ground_torque5_z	ground_force4_vx	ground_force4_vy	ground_force4_vz	ground_force4_px	ground_force4_py	ground_force4_pz	ground_torque4_x	ground_torque4_y	ground_torque4_z	ground_force1_vx	ground_force1_vy	ground_force1_vz	ground_force1_px	ground_force1_py	ground_force1_pz	ground_torque1_x	ground_torque1_y	ground_torque1_z	ground_force2_vx	ground_force2_vy	ground_force2_vz	ground_force2_px	ground_force2_py	ground_force2_pz	ground_torque2_x	ground_torque2_y	ground_torque2_z
2.951000	-0.000000	-0.000000	0.000000	0.200000	0.000000	-0.300000	0.000000	0.000000	-0.000000	8.477543	311.454224	57.642754	0.178999	0.000000	-1.455187	0.000031	-0.096683	0.000003	1.843990	256.279114	-43.935871	0.193225	0.000000	-0.950557	0.000018	-1.307654	0.000004	-0.000000	-0.000000	0.000000	0.200000	0.000000	0.904000	0.000000	0.000000	-0.000000	-0.000000	-0.000000	0.000000	0.400000	0.000000	0.302000	0.000000	0.000000	-0.000000	
2.952000	-0.000000	-0.000000	0.000000	0.200000	0.000000	-0.300000	0.000000	0.000000	-0.000000	7.673007	315.279877	58.125034	0.178131	0.000000	-1.455735	0.000051	-0.092164	0.000001	1.840902	258.524750	-45.224224	0.192540	0.000000	-0.951546	0.000012	-1.478948	0.000002	-0.000000	-0.000000	0.000000	0.200000	0.000000	0.904000	0.000000	0.000000	-0.000000	-0.000000	-0.000000	0.000000	0.400000	0.000000	0.302000	0.000000	0.000000	-0.000000	
2.953000	-0.000000	-0.000000	0.000000	0.200000	0.000000	-0.300000	0.000000	0.000000	-0.000000	7.833711	315.598419	57.643433	0.179052	0.000000	-1.455253	0.000009	-0.054346	-0.000000	1.193642	257.881958	-44.095387	0.192994	0.000000	-0.950992	0.000012	-1.360011	0.000004	-0.000000	-0.000000	0.000000	0.200000	0.000000	0.904000	0.000000	0.000000	-0.000000	-0.000000	-0.000000	0.000000	0.400000	0.000000	0.302000	0.000000	0.000000	-0.000000	
2.954000	-0.000000	-0.000000	0.000000	0.200000	0.000000	-0.300000	0.000000	0.000000	-0.000000	7.833711	316.238525	57.964836	0.178848	0.000000	-1.455309	0.000009	-0.036180	0.000006	2.328663	258.203857	-44.581070	0.193072	0.000000	-0.951256	0.000023	-1.414810	0.000003	-0.000000	-0.000000	0.000000	0.200000	0.000000	0.904000	0.000000	0.000000	-0.000000	-0.000000	-0.000000	0.000000	0.400000	0.000000	0.302000	0.000000	0.000000	-0.000000	
2.955000	-0.000000	-0.000000	0.000000	0.200000	0.000000	-0.300000	0.000000	0.000000	-0.000000	8.477543	317.193542	58.285568	0.179170	0.000000	-1.454055	0.000025	-0.083467	0.000006	1.517272	259.486115	-44.576988	0.192639	0.000000	-0.950056	0.000004	-1.335514	0.000003	-0.000000	-0.000000	0.000000	0.200000	0.000000	0.904000	0.000000	0.000000	-0.000000	-0.000000	-0.000000	0.000000	0.400000	0.000000	0.302000	0.000000	0.000000	-0.000000	
2.956000	-0.000000	-0.000000	0.000000	0.200000	0.000000	-0.300000	0.000000	0.000000	-0.000000	7.671988	318.472778	58.446106	0.179814	0.000000	-1.455751	0.000012	-0.093427	0.000004	1.195186	261.403107	-45.383743	0.192939	0.000000	-0.951262	0.000010	-1.307664	0.000003	-0.000000	-0.000000	0.000000	0.200000	0.000000	0.904000	0.000000	0.000000	-0.000000	-0.000000	-0.000000	0.000000	0.400000	0.000000	0.302000	0.000000	0.000000	-0.000000	
2.957000	-0.000000	-0.000000	0.000000	0.200000	0.000000	-0.300000	0.000000	0.000000	-0.000000	8.798950	320.062561	58.284893	0.180017	0.000000	-1.453915	0.000037	-0.128433	0.000003	1.193642	262.361450	-45.865341	0.193691	0.000000	-0.950000	0.000015	-1.281941	0.000003	-0.000000	-0.000000	0.000000	0.200000	0.000000	0.904000	0.000000	0.000000	-0.000000	-0.000000	-0.000000	0.000000	0.400000	0.000000	0.302000	0.000000	0.000000	-0.000000	
2.958000	-0.000000	-0.000000	0.000000	0.200000	0.000000	-0.300000	0.000000	0.000000	-0.000000	8.155627	321.978241	58.928047	0.180013	0.000000	-1.454880	0.000042	-0.180954	-0.000000	1.354685	261.724365	-45.384758	0.192822	0.000000	-0.950494	-0.000001	-1.455387	0.000001	-0.000000	-0.000000	0.000000	0.200000	0.000000	0.904000	0.000000	0.000000	-0.000000	-0.000000	-0.000000	0.000000	0.400000	0.000000	0.302000	0.000000	0.000000	-0.000000	
2.959000	-0.000000	-0.000000	0.000000	0.200000	0.000000	-0.300000	0.000000	0.000000	-0.000000	8.315311	320.704041	59.249794	0.179712	0.000000	-1.455023	0.000021	0.049495	0.000005	1.837812	262.040863	-45.385780	0.193381	0.000000	-0.952086	0.000014	-1.591686	0.000001	-0.000000	-0.000000	0.000000	0.200000	0.000000	0.904000	0.000000	0.000000	-0.000000	-0.000000	-0.000000	0.000000	0.400000	0.000000	0.302000	0.000000	0.000000	-0.000000	
2.960000	-0.000000	-0.000000	0.000000	0.200000	0.000000	-0.300000	0.000000	0.000000	-0.000000	8.154608	321.979889	58.928047	0.180013	0.000000	-1.454880	0.000046	-0.052223	0.000003	1.515728	262.682343	-46.029957	0.193036	0.000000	-0.951606	0.000002	-1.530762	0.000004	-0.000000	-0.000000	0.000000	0.200000	0.000000	0.904000	0.000000	0.000000	-0.000000	-0.000000	-0.000000	0.000000	0.400000	0.000000	0.302000	0.000000	0.000000	-0.000000	
2.961000	-0.000000	-0.000000	0.000000	0.200000	0.000000	-0.300000	0.000000	0.000000	-0.000000	7.995433	323.575012	59.088577	0.179948	0.000000	-1.455668	0.000018	-0.303857	0.000004	1.192098	263.642365	-45.546314	0.193722	0.000000	-0.950173	0.000008	-1.459227	0.000001	-0.000000	-0.000000	0.000000	0.200000	0.000000	0.904000	0.000000	0.000000	-0.000000	-0.000000	-0.000000	0.000000	0.400000	0.000000	0.302000	0.000000	0.000000	-0.000000	
2.962000	-0.000000	-0.000000	0.000000	0.200000	0.000000	-0.300000	0.000000	0.000000	-0.000000	8.798441	324.210449	58.766834	0.180853	0.000000	-1.454661	0.000018	-0.129374	-0.000001	1.515728	263.321777	-45.545296	0.193635	0.000000	-0.950933	0.000015	-1.440965	0.000005	-0.000000	-0.000000	0.000000	0.200000	0.000000	0.904000	0.000000	0.000000	-0.000000	-0.000000	-0.000000	0.000000	0.400000	0.000000	0.302000	0.000000	0.000000	-0.000000	
2.963000	-0.000000	-0.000000	0.000000	0.200000	0.000000	-0.300000	0.000000	0.000000	-0.000000	8.799459	325.486664	59.088577	0.180440	0.000000	-1.455194	0.000017	-0.193590	0.000001	1.353141	264.604065	-45.866364	0.193331	0.000000	-0.949818	0.000002	-1.441465	0.000004	-0.000000	-0.000000	0.000000	0.200000	0.000000	0.904000	0.000000	0.000000	-0.000000	-0.000000	-0.000000	0.000000	0.400000	0.000000	0.302000	0.000000	0.000000	-0.000000	
2.964000	-0.000000	-0.000000	0.000000	0.200000	0.000000	-0.300000	0.000000	0.000000	-0.000000	8.478052	327.400330	58.927708	0.180499	0.000000	-1.455504	0.000004	-0.302123	0.000003	1.350051	265.882629	-46.188450	0.193377	0.000000	-0.951495	0.000023	-1.573191	0.000005	-0.000000	-0.000000	0.000000	0.200000	0.000000	0.904000	0.000000	0.000000	-0.000000	-0.000000	-0.000000	0.000000	0.400000	0.000000	0.302000	0.000000	0.000000	-0.000000	
2.965000	-0.000000	-0.000000	0.000000	0.200000	0.000000	-0.300000	0.000000	0.000000	-0.000000	8.155627	325.805908	59.248096	0.180741	0.000000	-1.454275	0.000053	-0.367010	0.000001	1.675225	266.206879	-46.189472	0.193287	0.000000	-0.950273	-0.000001	-1.564990	0.000004	-0.000000	-0.000000	0.000000	0.200000	0.000000	0.904000	0.000000	0.000000	-0.000000	-0.000000	-0.000000	0.000000	0.400000	0.000000	0.302000	0.000000	0.000000	-0.000000	
2.966000	-0.000000	-0.000000	0.000000	0.200000	0.000000	-0.300000	0.000000	0.000000	-0.000000	8.798950	329.953461	59.731056	0.181200	0.000000	-1.454270	0.000033	-0.192427	0.000005	1.512638	266.200806	-47.312191	0.194144	0.000000	-0.951870	0.000013	-1.385564	0.000002	-0.000000	-0.000000	0.000000	0.200000	0.000000	0.904000	0.000000	0.000000	-0.000000	-0.000000	-0.000000	0.000000	0.400000	0.000000	0.302000	0.000000	0.000000	-0.000000	
2.967000	-0.000000	-0.000000	0.000000	0.200000	0.000000	-0.300000	0.000000	0.000000	-0.000000	8.797422	331.860474	59.730042	0.180369	0.000000	-1.454581	0.000027	-0.068162	-0.000001	1.998855	267.163208	-46.672092	0.194101	0.000000	-0.950882	0.000022	-1.527633	0.000001	-0.000000	-0.000000	0.000000	0.200000	0.000000	0.904000	0.000000	0.000000	-0.000000	-0.000000	-0.000000	0.000000	0.400000	0.000000	0.302000	0.000000	0.000000	-0.000000	
2.968000	-0.000000	-0.000000	0.000000	0.200000	0.000000	-0.300000	0.000000	0.000000	-0.000000	8.637737	331.226013	59.730713	0.180786	0.000000	-1.454105	0.000005	-0.180628	0.000002	1.515728	269.085907	-46.831608	0.193766	0.000000	-0.951010	0.000018	-1.366325	0.000002	-0.000000	-0.000000	0.000000	0.200000	0.000000	0.904000	0.000000	0.000000	-0.000000	-0.000000	-0.000000	0.000000	0.400000	0.000000	0.302000	0.000000	0.000000	-0.000000	
2.969000	-0.000000	-0.000000	0.000000	0.200000	0.000000	-0.300000	0.000000	0.000000	-0.000000	9.764698	332.505219	60.694603	0.181691	0.000000	-1.455612	0.000046	-0.246475	0.000002	1.195186	270.682343	-47.475784	0.193902	0.000000	-0.952881	0.000023	-1.221486	0.000003	-0.000000	-0.000000	0.000000	0.200000	0.000000	0.904000	0.000000	0.000000	-0.000000	-0.000000	-0.000000	0.000000	0.400000	0.000000	0.302000	0.000000	0.000000	-0.000000	
2.970000	-0.000000	-0.000000	0.000000	0.200000	0.000000	-0.300000	0.000000	0.000000	-0.000000	9.764698	331.230347	60.534065	0.181883	0.000000	-1.454335	0.000010	-0.229351	-0.000000	0.705880	270.364502	-46.831608	0.194487	0.000000	-0.948505	0.000007	-1.324236	0.000005	-0.000000	-0.000000	0.000000	0.200000	0.000000	0.904000	0.000000	0.000000	-0.000000	-0.000000	-0.000000	0.000000	0.400000	0.000000	0.302000	0.000000	0.000000	-0.000000	
2.971000	-0.000000	-0.000000	0.000000	0.200000	0.000000	-0.300000	0.000000	0.000000	-0.000000	8.959145	333.454926	60.373192	0.181088	0.000000	-1.453796	0.000056	-0.141907	0.000001	1.842445	270.046936	-47.797874	0.193427	0.000000	-0.952140	0.000013	-1.277250	-0.000000	-0.000000	-0.000000	0.000000	0.200000	0.000000	0.904000	0.000000	0.000000	-0.000000	-0.000000	-0.000000	0.000000	0.400000	0.000000	0.302000	0.000000	0.000000	-0.000000	
2.972000	-0.000000	-0.000000	0.000000	0.200000	0.000000	-0.300000	0.000000	0.000000	-0.000000	8.961182	333.778503	60.051109	0.181697	0.000000	-1.453325	0.000023	-0.514973	0.000004	1.512638	272.604736	-46.990105	0.193985	0.000000	-0.951078	0.000023	-1.389822	0.000002	-0.000000	-0.000000	0.000000	0.200000	0.000000	0.904000	0.000000	0.000000	-0.000000	-0.000000	-0.000000	0.000000	0.400000	0.000000	0.302000	0.000000	0.000000	-0.000000	
2.973000	-0.000000	-0.000000	0.000000	0.200000	0.000000	-0.300000	0.000000	0.000000	-0.000000	8.799459	335.691437	60.211643	0.181720	0.000000	-1.455780	0.000038	-0.465845	0.000002	1.837812	271.004272	-48.442051	0.193867	0.000000	-0.950942	0.000023	-1.452163	0.000001	-0.000000	-0.000000	0.000000	0.200000	0.000000	0.904000	0.000000	0.000000	-0.000000	-0.000000	-0.000000	0.000000	0.400000	0.000000	0.302000	0.000000	0.000000	-0.000000	
2.974000	-0.000000	-0.000000	0.000000	0.200000	0.000000	-0.300000	0.000000	0.000000	-0.000000	9.765718	338.238586	60.854797	0.181351	0.000000	-1.454260	0.000028	-0.396228	0.000001	1.190554	272.606750	-47.796852	0.193640	0.000000	-0.950762	0.000023	-1.388873	0.000005	-0.000000	-0.000000	0.000000	0.200000	0.000000	0.904000	0.000000	0.000000	-0.000000	-0.000000	-0.000000	0.000000	0.400000	0.000000	0.302000	0.000000	0.000000	-0.000000	
2.975000	-0.000000	-0.000000	0.000000	0.200000	0.000000	-0.300000	0.000000	0.000000	-0.000000	9.603486	339.516846	61.497269	0.181869	0.000000	-1.453627	-0.000006	-0.295583	0.000000	1.675225	272.920258	-48.279476	0.194725	0.000000	-0.950124	0.000021	-1.374893	0.000005	-0.000000	-0.000000	0.000000	0.200000	0.000000	0.904000	0.000000	0.000000	-0.000000	-0.000000	-0.000000	0.000000	0.400000	0.000000	0.302000	0.000000	0.000000	-0.000000	
